<svg width="320" height="66" viewBox="0 0 320 66" fill="none" xmlns="http://www.w3.org/2000/svg">
<path fill-rule="evenodd" clip-rule="evenodd" d="M71.3414 7.76366H77.3142V46.6024H99.6448V51.8547H71.3414V7.76366ZM120.567 18.9889C122.849 18.9889 125.059 19.5242 127.201 20.5946C129.342 21.6653 130.972 23.0508 132.093 24.7516C133.173 26.3724 133.894 28.2635 134.254 30.4244C134.574 31.9053 134.734 34.2664 134.734 37.508H111.173C111.273 40.7694 112.043 43.3857 113.484 45.3568C114.924 47.3276 117.156 48.3131 120.177 48.3131C122.998 48.3131 125.25 47.3827 126.93 45.5217C127.891 44.4411 128.571 43.1907 128.972 41.7701H134.284C134.144 42.9506 133.679 44.2662 132.888 45.7167C132.098 47.1675 131.213 48.3531 130.232 49.2737C128.591 50.8743 126.56 51.955 124.139 52.515C122.838 52.8352 121.368 52.9953 119.727 52.9953C115.725 52.9953 112.333 51.5397 109.552 48.6282C106.77 45.7167 105.38 41.6397 105.38 36.3973C105.38 31.2348 106.781 27.0429 109.582 23.8212C112.383 20.5997 116.045 18.9889 120.567 18.9889ZM129.182 33.2159C128.961 30.8746 128.451 29.0038 127.651 27.6033C126.17 25.0017 123.699 23.7011 120.237 23.7011C117.756 23.7011 115.675 24.5967 113.994 26.3875C112.313 28.1783 111.423 30.4545 111.323 33.2159H129.182ZM126.81 6.77298L118.797 15.4472H114.655L120.147 6.77298H126.81ZM155.086 19.139C157.607 19.139 159.808 19.7592 161.689 21C162.71 21.7002 163.75 22.7207 164.811 24.0613V20.0093H169.793V49.2436C169.793 53.3254 169.193 56.5471 167.993 58.9082C165.751 63.2701 161.519 65.4513 155.296 65.4513C151.834 65.4513 148.923 64.6761 146.562 63.1251C144.201 61.5744 142.88 59.1483 142.6 55.8469H148.093C148.353 57.2874 148.873 58.3978 149.654 59.1785C150.874 60.3788 152.795 60.9792 155.416 60.9792C159.558 60.9792 162.27 59.5185 163.55 56.5971C164.311 54.8764 164.661 51.8048 164.601 47.3827C163.52 49.0233 162.219 50.2439 160.699 51.0443C159.178 51.8448 157.167 52.2451 154.666 52.2451C151.184 52.2451 148.138 51.0094 145.527 48.5382C142.915 46.067 141.61 41.9801 141.61 36.2772C141.61 30.8948 142.925 26.6926 145.556 23.6713C148.188 20.6497 151.364 19.139 155.086 19.139ZM164.811 35.6471C164.811 31.6652 163.99 28.7137 162.35 26.7929C160.709 24.8717 158.618 23.9115 156.077 23.9115C152.275 23.9115 149.674 25.692 148.273 29.2538C147.532 31.1548 147.162 33.6459 147.162 36.7274C147.162 40.3494 147.898 43.1056 149.368 44.9966C150.839 46.8873 152.815 47.8328 155.296 47.8328C159.178 47.8328 161.91 46.082 163.49 42.5805C164.371 40.5994 164.811 38.2883 164.811 35.6471ZM180.3 19.8595H185.793V51.8547H180.3V19.8595ZM180.3 7.76366H185.793V13.8866H180.3V7.76366ZM197.621 7.76366H217.461C221.383 7.76366 224.544 8.86894 226.945 11.0802C229.347 13.2911 230.547 16.3976 230.547 20.3996C230.547 23.8413 229.477 26.8377 227.335 29.3889C225.194 31.9402 221.903 33.2159 217.461 33.2159H203.594V51.8547H197.621V7.76366ZM224.514 20.4297C224.514 17.1881 223.314 14.9871 220.912 13.8264C219.592 13.2062 217.781 12.896 215.48 12.896H203.594V28.1735H215.48C218.161 28.1735 220.337 27.6033 222.008 26.4624C223.679 25.3219 224.514 23.3111 224.514 20.4297ZM239.704 19.8595H245.196V51.8547H239.704V19.8595ZM239.704 7.76366H245.196V13.8866H239.704V7.76366ZM255.884 7.76366H261.288V51.8547H255.884V7.76366ZM284.731 18.7788C288.87 18.7788 292.373 20.1595 295.236 22.9208C298.096 25.6821 299.526 29.744 299.526 35.1066C299.526 40.2892 298.267 44.5714 295.746 47.9529C293.225 51.3344 289.312 53.0254 284.009 53.0254C279.586 53.0254 276.076 51.5298 273.473 48.5382C270.873 45.5467 269.573 41.5299 269.573 36.4872C269.573 31.0847 270.945 26.7826 273.685 23.581C276.425 20.3798 280.109 18.7788 284.731 18.7788ZM284.519 48.373C288.101 48.373 290.557 47.0173 291.887 44.3063C293.218 41.5949 293.885 38.5784 293.885 35.2567C293.885 32.2553 293.403 29.8142 292.445 27.9334C290.923 24.9719 288.302 23.4911 284.58 23.4911C281.279 23.4911 278.878 24.7516 277.376 27.2728C275.874 29.7943 275.125 32.8358 275.125 36.3973C275.125 39.8191 275.874 42.6704 277.376 44.9514C278.878 47.2325 281.259 48.373 284.519 48.373ZM309.402 10.735H314.865V19.7093H320V24.1215H314.865V45.1016C314.865 46.222 315.248 46.9725 316.008 47.3526C316.429 47.5729 317.126 47.6827 318.108 47.6827C318.368 47.6827 318.649 47.6779 318.95 47.6676C319.247 47.6577 319.6 47.6327 320 47.5927V51.8547C319.377 52.035 318.734 52.165 318.064 52.2451C317.393 52.3251 316.668 52.3651 315.888 52.3651C313.367 52.3651 311.657 51.7196 310.753 50.4293C309.854 49.1386 309.402 47.4627 309.402 45.4016V24.1215H305.051V19.7093H309.402V10.735Z" fill="#093351"/>
<path fill-rule="evenodd" clip-rule="evenodd" d="M0.011219 57.8688C0.00386429 57.8342 -3.8147e-06 57.7983 -3.8147e-06 57.7615V6.09104C-3.8147e-06 5.82994 0.194973 5.61435 0.447262 5.58208H2.07977C2.33205 5.61435 2.52703 5.82994 2.52703 6.09104V55.7502H52.1842C52.4452 55.7502 52.6608 55.9452 52.6932 56.1975V57.83C52.6608 58.0823 52.4452 58.2773 52.1842 58.2773H0.513664C0.266132 58.2773 0.0595284 58.102 0.011219 57.8688ZM55.1897 3.07577H5.53566C5.25227 3.07577 5.02253 2.84597 5.02253 2.56256V1.06184C5.02253 0.778442 5.25227 0.54874 5.53566 0.54874H57.2062C57.4672 0.54874 57.6828 0.743694 57.7152 0.995903V1.02127C57.7161 1.0348 57.7167 1.04852 57.7167 1.06234V52.7329C57.7167 52.994 57.5218 53.2095 57.2695 53.2418H55.637C55.3847 53.2095 55.1897 52.994 55.1897 52.7329V3.07577Z" fill="#093351"/>
<path d="M32.0683 41.0331H29.6218C29.2842 41.0331 29.0102 40.7597 29.0102 40.4214V32.6073L22.2187 36.4881C21.9282 36.655 21.5576 36.5553 21.3881 36.2673L20.1649 34.1877C20.0823 34.0477 20.0591 33.8795 20.1007 33.7223C20.1423 33.5645 20.2444 33.4299 20.3857 33.3486L27.1784 29.4122L20.3851 25.4764C20.2444 25.395 20.1417 25.2598 20.1001 25.1027C20.0591 24.9449 20.0817 24.7773 20.1643 24.6372L21.3875 22.5577C21.557 22.269 21.9276 22.1705 22.2181 22.3369L29.0102 26.2177V18.4029C29.0102 18.0653 29.2842 17.7913 29.6218 17.7913H32.0683C32.4066 17.7913 32.68 18.0653 32.68 18.4029V26.2177L39.4715 22.3369C39.7626 22.1711 40.132 22.269 40.302 22.5577L41.5253 24.6372C41.6079 24.7773 41.6311 24.9449 41.5889 25.1027C41.5479 25.2598 41.4452 25.395 41.3039 25.4764L34.5118 29.4122L41.3039 33.348C41.4446 33.4299 41.5473 33.5645 41.5889 33.7217C41.6305 33.8789 41.6073 34.0465 41.5253 34.1871L40.302 36.2667C40.132 36.5553 39.762 36.655 39.4715 36.4875L32.68 32.6073V40.4214C32.68 40.7597 32.4066 41.0331 32.0683 41.0331Z" fill="white"/>
</svg>
