<svg width="121" height="24" viewBox="0 0 121 24" fill="none" xmlns="http://www.w3.org/2000/svg">
<g clip-path="url(#clip0_393_14390)">
<path d="M0.830526 1.9301C0.925183 1.9301 1.00199 2.00659 1.00199 2.10087V20.5137H19.4879C19.5826 20.5137 19.6594 20.5897 19.6594 20.6844V21.2785C19.6594 21.3728 19.5826 21.4493 19.4879 21.4493H0.234016C0.168596 21.4493 0.11172 21.4128 0.0828164 21.3591C0.0696051 21.3349 0.0620607 21.3072 0.0620537 21.2777V2.10087C0.0620537 2.0066 0.138863 1.93011 0.233514 1.9301H0.830526Z" fill="#024A70"/>
<path d="M21.3557 0.0675659C21.4504 0.0675825 21.5272 0.14415 21.5272 0.238418V0.832525C21.5272 0.838439 21.5269 0.84428 21.5263 0.850035V19.4153C21.5263 19.5095 21.4495 19.586 21.3548 19.586H20.7578C20.6632 19.586 20.5864 19.5095 20.5863 19.4153V1.00329H2.10132C2.00667 1.00329 1.92987 0.927242 1.92986 0.832525V0.238418C1.92986 0.14414 2.00666 0.0675659 2.10132 0.0675659H21.3557Z" fill="#024A70"/>
<path d="M11.244 15.0624H10.3345C10.2086 15.0624 10.1068 14.961 10.1068 14.836V11.9414L7.58131 13.3791C7.47326 13.441 7.33529 13.4041 7.27233 13.2973L6.81733 12.5271C6.78652 12.475 6.77804 12.4128 6.79367 12.3545C6.80885 12.2963 6.8468 12.2465 6.89949 12.2162L9.42585 10.758L6.89949 9.30026C6.8468 9.27046 6.80885 9.22021 6.79322 9.16195C6.77804 9.10369 6.78652 9.04143 6.81733 8.9894L7.27233 8.21916C7.33529 8.11243 7.47281 8.07597 7.58087 8.13778L10.1068 9.57509V6.68046C10.1068 6.5555 10.2086 6.45411 10.3345 6.45411H11.244C11.37 6.45411 11.4718 6.5555 11.4718 6.68046V9.57509L13.9972 8.13778C14.1057 8.07597 14.2428 8.11243 14.3062 8.21916L14.7612 8.9894C14.7916 9.04143 14.8005 9.10369 14.7849 9.16195C14.7697 9.22021 14.7313 9.27046 14.6786 9.30026L12.1527 10.758L14.6786 12.2158C14.7308 12.2465 14.7692 12.2963 14.7849 12.3545C14.8 12.4128 14.7916 12.4746 14.7612 12.5266L14.3062 13.2969C14.2428 13.4041 14.1053 13.441 13.9972 13.3787L11.4718 11.9414V14.836C11.4718 14.961 11.37 15.0624 11.244 15.0624Z" fill="#FFD7B7"/>
<path fill-rule="evenodd" clip-rule="evenodd" d="M58.3177 6.64009C59.5679 6.64009 60.5204 6.86779 61.1754 7.32317L61.9755 8.57542V6.95845H65.1297V16.0431C65.1297 17.1664 65.1225 17.9477 65.1082 18.3876C65.0462 20.2398 64.4474 21.6362 63.3114 22.5767C62.1764 23.5182 60.6261 23.9892 58.6606 23.9892C56.8933 23.9892 55.5145 23.632 54.5241 22.9183C53.5333 22.2041 52.9694 21.1794 52.8328 19.8444L52.8095 19.6167H55.8726L55.8958 19.8213C55.9717 20.3834 56.2575 20.8272 56.7531 21.1536C57.2483 21.4796 57.8998 21.6428 58.707 21.6428C59.6974 21.6428 60.4708 21.396 61.0271 20.9028C61.583 20.4092 61.8916 19.6848 61.9523 18.7291C61.9675 18.4258 61.9755 17.9322 61.9755 17.2491V16.9538L61.061 18.2968C60.3296 18.858 59.3241 19.1383 58.0444 19.1383C56.3522 19.1382 55.0032 18.5886 53.9973 17.4893C52.9922 16.3891 52.4899 14.9428 52.4899 13.1507C52.4899 11.0565 53.0457 9.44794 54.158 8.3246C55.2698 7.20172 56.6567 6.6401 58.3177 6.64009ZM58.9357 8.84758C57.9757 8.84758 57.2059 9.18558 56.6263 9.86153C56.0477 10.5366 55.7583 11.5421 55.7583 12.8785C55.7583 14.1228 56.032 15.1091 56.5799 15.8384C57.1286 16.5669 57.8752 16.9307 58.8196 16.9307C59.7648 16.9307 60.5271 16.6083 61.1057 15.963C61.6853 15.3182 61.9755 14.2971 61.9755 12.8998V12.5583C61.9755 11.2989 61.6781 10.3659 61.0843 9.75838C60.49 9.15135 59.7738 8.84759 58.9357 8.84758Z" fill="#024A70"/>
<path fill-rule="evenodd" clip-rule="evenodd" d="M45.4478 6.64009C47.2311 6.6401 48.6255 7.22492 49.6306 8.39406C50.6366 9.56232 51.1399 11.0192 51.1399 12.7647C51.1399 13.2049 51.1247 13.5611 51.0952 13.8337H42.4544C42.6365 16.0657 43.5733 17.1815 45.2656 17.1815C45.9514 17.1815 46.5185 16.9996 46.9677 16.6354C47.4177 16.2703 47.6964 15.7691 47.8035 15.1323H50.9577C50.6527 16.5126 49.9861 17.5675 48.9574 18.2968C47.9286 19.0253 46.6752 19.3891 45.1977 19.3891C43.4447 19.3891 42.0195 18.8465 40.9219 17.7614C39.8253 16.6763 39.277 15.1092 39.277 13.0599C39.277 11.1779 39.8441 9.63745 40.9791 8.43851C42.115 7.23957 43.6046 6.64009 45.4478 6.64009ZM45.312 8.84767C43.7412 8.84768 42.8192 9.8269 42.5454 11.7845H47.8946C47.6812 9.82689 46.8203 8.84767 45.312 8.84767Z" fill="#024A70"/>
<path fill-rule="evenodd" clip-rule="evenodd" d="M106.323 6.64009C108.304 6.6401 109.851 7.22839 110.963 8.40465C112.077 9.58136 112.633 11.1174 112.633 13.0137C112.633 14.897 112.077 16.4304 110.963 17.6138C109.851 18.7976 108.304 19.3891 106.323 19.3891C104.342 19.3891 102.795 18.7976 101.683 17.6138C100.571 16.4304 100.015 14.897 100.015 13.0137C100.015 11.1174 100.571 9.58136 101.683 8.40465C102.795 7.2284 104.342 6.64009 106.323 6.64009ZM106.323 8.84758C105.379 8.84758 104.636 9.21582 104.094 9.95225C103.554 10.6887 103.283 11.7098 103.283 13.0154C103.283 14.3202 103.554 15.3404 104.094 16.0768C104.636 16.8133 105.379 17.1815 106.323 17.1815C107.269 17.1815 108.012 16.8133 108.552 16.0768C109.093 15.3404 109.363 14.3202 109.363 13.0154C109.363 11.7098 109.093 10.6887 108.552 9.95225C108.012 9.21581 107.269 8.84759 106.323 8.84758Z" fill="#024A70"/>
<path d="M118.462 7.04926H120.976V9.12158H118.462V14.7214C118.462 15.223 118.469 15.5801 118.485 15.7922C118.53 16.3841 118.705 16.767 119.01 16.9414C119.314 17.1157 119.902 17.1726 120.771 17.1121V19.1614C120.116 19.2681 119.422 19.3214 118.69 19.3214C117.532 19.3214 116.705 19.128 116.209 18.7416C115.715 18.3538 115.43 17.72 115.354 16.84C115.323 16.4762 115.307 15.8914 115.307 15.0861V9.12158H113.525V7.04926H115.307V4.06613H118.462V7.04926Z" fill="#024A70"/>
<path d="M97.5218 15.1092C97.5218 15.6406 97.5294 16.0124 97.545 16.2245C97.5758 16.5438 97.6901 16.7564 97.8879 16.8631C98.0866 16.969 98.4452 17.0063 98.9631 16.9752V19.1383C98.4139 19.1996 97.7664 19.2307 97.0199 19.2307C95.3432 19.2307 94.4748 18.517 94.4141 17.089C94.3828 16.7253 94.3676 16.0875 94.3676 15.1768V2.33701H97.5218V15.1092Z" fill="#024A70"/>
<path d="M30.0403 16.4522H38.2703V19.0706H26.8861V3.36171H30.0403V16.4522Z" fill="#024A70"/>
<path d="M71.2118 19.0706H68.0559V6.95845H71.2118V19.0706Z" fill="#024A70"/>
<path fill-rule="evenodd" clip-rule="evenodd" d="M80.1948 3.36171C81.078 3.36171 81.8401 3.39993 82.4809 3.47553C83.7454 3.61206 84.7697 4.09412 85.5547 4.92173C86.3405 5.74845 86.7335 6.85981 86.7335 8.25531C86.7335 9.63701 86.3289 10.7417 85.5208 11.5693C84.7135 12.396 83.6998 12.8852 82.4809 13.0368C81.8259 13.1129 81.0637 13.1507 80.1948 13.1507H77.8854V19.0706H74.7313V3.36171H80.1948ZM77.8854 10.6692H80.1483C80.7279 10.6692 81.1931 10.6469 81.5432 10.6016C82.7934 10.4192 83.4185 9.63744 83.4185 8.25706C83.4185 6.87579 82.7934 6.09352 81.5432 5.91074C81.1931 5.86583 80.7279 5.8432 80.1483 5.8432H77.8854V10.6692Z" fill="#024A70"/>
<path d="M91.534 19.0706H88.3781V6.95845H91.534V19.0706Z" fill="#024A70"/>
<path d="M46.0657 5.98011H44.2832L46.0657 3.29234H48.9002L46.0657 5.98011Z" fill="#024A70"/>
<path d="M69.6329 2.45091C70.1518 2.45091 70.5711 2.60654 70.8903 2.91694C71.2105 3.22779 71.3707 3.62627 71.3707 4.11233C71.3707 4.61306 71.2105 5.01509 70.8903 5.31838C70.5711 5.62212 70.1518 5.77374 69.6329 5.77374C69.115 5.77374 68.6957 5.62212 68.3755 5.31838C68.0563 5.01509 67.8969 4.61306 67.8969 4.11233C67.8969 3.62627 68.0563 3.22779 68.3755 2.91694C68.6957 2.60654 69.115 2.45091 69.6329 2.45091Z" fill="#024A70"/>
<path d="M89.9551 2.45091C90.474 2.45091 90.8933 2.60654 91.2125 2.91694C91.5327 3.22779 91.6929 3.62627 91.6929 4.11233C91.6929 4.61306 91.5327 5.01509 91.2125 5.31838C90.8933 5.62212 90.474 5.77374 89.9551 5.77374C89.4372 5.77374 89.0179 5.62212 88.6977 5.31838C88.3785 5.01509 88.2191 4.61306 88.2191 4.11233C88.2191 3.62627 88.3785 3.22779 88.6977 2.91694C89.0179 2.60654 89.4372 2.45091 89.9551 2.45091Z" fill="#024A70"/>
</g>
<defs>
<clipPath id="clip0_393_14390">
<rect width="121" height="24" fill="white"/>
</clipPath>
</defs>
</svg>
