<svg width="320" height="64" viewBox="0 0 320 64" fill="none" xmlns="http://www.w3.org/2000/svg">
<g clip-path="url(#clip0_428_2185)">
<path d="M2.19639 5.1469C2.44672 5.14691 2.64983 5.35088 2.64983 5.60229V54.7031H51.5383C51.7886 54.7031 51.9917 54.9058 51.9917 55.1584V56.7427C51.9917 56.9941 51.7886 57.1981 51.5383 57.1981H0.618839C0.445827 57.1981 0.295412 57.1007 0.218972 56.9575C0.184033 56.893 0.164081 56.8191 0.164062 56.7405V5.60229C0.164062 5.35089 0.367195 5.14693 0.61751 5.1469H2.19639Z" fill="white"/>
<path d="M56.4779 0.180145C56.7282 0.18019 56.9314 0.384369 56.9314 0.635752V2.22004C56.9314 2.23581 56.9305 2.25138 56.9289 2.26673V51.774C56.9289 52.0253 56.7258 52.2293 56.4755 52.2294H54.8966C54.6463 52.2293 54.4432 52.0253 54.4432 51.774V2.67542H5.55717C5.30684 2.67542 5.10374 2.47261 5.10372 2.22004V0.635752C5.10372 0.384342 5.30683 0.180145 5.55717 0.180145H56.4779Z" fill="white"/>
<path d="M29.7362 40.1663H27.3308C26.9978 40.1663 26.7286 39.8959 26.7286 39.5627V31.8437L20.0497 35.6777C19.7639 35.8426 19.399 35.7441 19.2325 35.4595L18.0292 33.4055C17.9478 33.2668 17.9253 33.1008 17.9667 32.9454C18.0068 32.7901 18.1072 32.6572 18.2465 32.5766L24.9278 28.688L18.2465 24.8007C18.1072 24.7212 18.0068 24.5872 17.9655 24.4319C17.9253 24.2765 17.9478 24.1105 18.0292 23.9717L19.2325 21.9178C19.399 21.6331 19.7627 21.5359 20.0485 21.7007L26.7286 25.5336V17.8146C26.7286 17.4813 26.9978 17.2109 27.3308 17.2109H29.7362C30.0692 17.2109 30.3385 17.4813 30.3385 17.8146V25.5336L37.0174 21.7007C37.3043 21.5359 37.6668 21.6331 37.8345 21.9178L39.0378 23.9717C39.1181 24.1105 39.1417 24.2765 39.1004 24.4319C39.0602 24.5872 38.9587 24.7212 38.8194 24.8007L32.1393 28.688L38.8194 32.5754C38.9575 32.6572 39.0591 32.7901 39.1004 32.9454C39.1405 33.1008 39.1181 33.2656 39.0378 33.4044L37.8345 35.4583C37.6668 35.7441 37.3031 35.8426 37.0174 35.6765L30.3385 31.8437V39.5627C30.3385 39.8959 30.0692 40.1663 29.7362 40.1663Z" fill="#FFD7B7"/>
<path fill-rule="evenodd" clip-rule="evenodd" d="M154.229 17.7069C157.535 17.7069 160.054 18.3141 161.786 19.5284L163.902 22.8678V18.5559H172.244V42.7815C172.244 45.777 172.225 47.8606 172.187 49.0335C172.023 53.9727 170.439 57.6964 167.435 60.2046C164.434 62.7151 160.334 63.9711 155.136 63.9711C150.462 63.9711 146.815 63.0187 144.196 61.1154C141.576 59.2108 140.085 56.4785 139.723 52.9185L139.662 52.3112H147.762L147.824 52.8569C148.024 54.3558 148.78 55.5392 150.091 56.4097C151.4 57.2789 153.123 57.7142 155.258 57.7142C157.878 57.7142 159.923 57.056 161.394 55.7408C162.864 54.4245 163.68 52.4927 163.841 49.9442C163.881 49.1355 163.902 47.8191 163.902 45.9976V45.2101L161.484 48.7915C159.55 50.2881 156.89 51.0353 153.506 51.0353C149.031 51.0353 145.463 49.5695 142.803 46.638C140.145 43.7041 138.816 39.8475 138.816 35.0684C138.816 29.484 140.286 25.1945 143.228 22.1989C146.168 19.2046 149.836 17.7069 154.229 17.7069ZM155.863 23.5935C153.324 23.5935 151.288 24.4949 149.756 26.2974C148.225 28.0976 147.46 30.779 147.46 34.3427C147.46 37.6607 148.184 40.291 149.633 42.2358C151.084 44.1783 153.058 45.1485 155.556 45.1485C158.056 45.1485 160.072 44.2887 161.602 42.568C163.135 40.8485 163.902 38.1256 163.902 34.3996V33.4888C163.902 30.1304 163.116 27.6423 161.545 26.0223C159.974 24.4036 158.08 23.5936 155.863 23.5935Z" fill="white"/>
<path fill-rule="evenodd" clip-rule="evenodd" d="M120.193 17.7069C124.909 17.7069 128.597 19.2664 131.255 22.3842C133.915 25.4995 135.246 29.3845 135.246 34.0391C135.246 35.2131 135.206 36.163 135.128 36.89H112.276C112.758 42.842 115.235 45.8173 119.711 45.8173C121.525 45.8173 123.024 45.3323 124.212 44.3611C125.402 43.3875 126.139 42.0509 126.423 40.3527H134.764C133.958 44.0337 132.195 46.8467 129.474 48.7915C126.753 50.734 123.439 51.7042 119.531 51.7042C114.895 51.7042 111.126 50.2574 108.223 47.3638C105.323 44.4702 103.873 40.2911 103.873 34.8265C103.873 29.8078 105.373 25.6998 108.375 22.5027C111.379 19.3055 115.318 17.7069 120.193 17.7069ZM119.833 23.5938C115.679 23.5938 113.241 26.2051 112.517 31.4254H126.664C126.099 26.205 123.822 23.5938 119.833 23.5938Z" fill="white"/>
<path fill-rule="evenodd" clip-rule="evenodd" d="M281.186 17.7069C286.425 17.7069 290.516 19.2757 293.457 22.4124C296.401 25.5503 297.873 29.6464 297.873 34.7031C297.873 39.7253 296.401 43.8143 293.457 46.97C290.516 50.1269 286.425 51.7042 281.186 51.7042C275.945 51.7042 271.854 50.1268 268.914 46.97C265.973 43.8143 264.503 39.7253 264.503 34.7031C264.503 29.6464 265.973 25.5503 268.914 22.4124C271.854 19.2757 275.945 17.7069 281.186 17.7069ZM281.186 23.5935C278.688 23.5935 276.723 24.5755 275.291 26.5393C273.861 28.5032 273.146 31.226 273.146 34.7078C273.146 38.1872 273.861 40.9077 275.291 42.8716C276.723 44.8354 278.688 45.8173 281.186 45.8173C283.685 45.8173 285.65 44.8354 287.08 42.8716C288.509 40.9077 289.225 38.1872 289.225 34.7078C289.225 31.226 288.509 28.5032 287.08 26.5393C285.65 24.5755 283.685 23.5936 281.186 23.5935Z" fill="white"/>
<path d="M313.287 18.798H319.937V24.3242H313.287V39.2569C313.287 40.5946 313.307 41.547 313.348 42.1127C313.468 43.691 313.93 44.7121 314.737 45.1769C315.542 45.6418 317.095 45.7936 319.394 45.6323V51.0969C317.662 51.3815 315.828 51.5238 313.892 51.5238C310.827 51.5238 308.64 51.0081 307.331 49.9776C306.024 48.9435 305.269 47.2534 305.068 44.9065C304.986 43.9365 304.945 42.3771 304.945 40.2295V24.3242H300.231V18.798H304.945V10.843H313.287V18.798Z" fill="white"/>
<path d="M257.909 40.2911C257.909 41.7082 257.929 42.6997 257.97 43.2653C258.052 44.1168 258.354 44.6838 258.877 44.9684C259.403 45.2506 260.351 45.3502 261.721 45.2672V51.0353C260.268 51.199 258.556 51.2819 256.582 51.2819C252.148 51.2819 249.851 49.3786 249.69 45.5707C249.608 44.6007 249.567 42.9001 249.567 40.4714V6.23203H257.909V40.2911Z" fill="white"/>
<path d="M79.4454 43.8726H101.211V50.855H71.1038V8.96455H79.4454V43.8726Z" fill="white"/>
<path d="M188.329 50.855H179.983V18.5559H188.329V50.855Z" fill="white"/>
<path fill-rule="evenodd" clip-rule="evenodd" d="M212.085 8.96455C214.421 8.96455 216.437 9.06647 218.131 9.26807C221.475 9.63214 224.184 10.9176 226.26 13.1246C228.339 15.3292 229.378 18.2928 229.378 22.0142C229.378 25.6987 228.308 28.6445 226.171 30.8515C224.036 33.056 221.355 34.3605 218.131 34.7649C216.399 34.9677 214.383 35.0684 212.085 35.0684H205.978V50.855H197.636V8.96455H212.085ZM205.978 28.4511H211.963C213.495 28.4511 214.726 28.3918 215.652 28.2708C218.958 27.7846 220.611 25.6998 220.611 22.0188C220.611 18.3354 218.958 16.2494 215.652 15.762C214.726 15.6422 213.495 15.5819 211.963 15.5819H205.978V28.4511Z" fill="white"/>
<path d="M242.073 50.855H233.727V18.5559H242.073V50.855Z" fill="white"/>
<path d="M121.827 15.947H117.113L121.827 8.77955H129.323L121.827 15.947Z" fill="white"/>
<path d="M184.153 6.53576C185.525 6.53576 186.634 6.95075 187.479 7.77851C188.325 8.60744 188.749 9.67004 188.749 10.9662C188.749 12.3015 188.325 13.3736 187.479 14.1823C186.634 14.9923 185.525 15.3966 184.153 15.3966C182.784 15.3966 181.675 14.9923 180.828 14.1823C179.984 13.3736 179.562 12.3015 179.562 10.9662C179.562 9.67004 179.984 8.60744 180.828 7.77851C181.675 6.95075 182.784 6.53576 184.153 6.53576Z" fill="white"/>
<path d="M237.898 6.53576C239.27 6.53576 240.379 6.95075 241.223 7.77851C242.07 8.60744 242.494 9.67004 242.494 10.9662C242.494 12.3015 242.07 13.3736 241.223 14.1823C240.379 14.9923 239.27 15.3966 237.898 15.3966C236.528 15.3966 235.419 14.9923 234.573 14.1823C233.728 13.3736 233.307 12.3015 233.307 10.9662C233.307 9.67004 233.728 8.60744 234.573 7.77851C235.419 6.95075 236.528 6.53576 237.898 6.53576Z" fill="white"/>
</g>
<defs>
<clipPath id="clip0_428_2185">
<rect width="320" height="64" fill="white"/>
</clipPath>
</defs>
</svg>
