<svg width="32" height="32" viewBox="0 0 32 32" fill="none" xmlns="http://www.w3.org/2000/svg">
<g clip-path="url(#clip0_1560_33129)">
<path d="M1.14563 2.78748C1.28674 2.78748 1.40124 2.90195 1.40124 3.04305V30.5997H28.9599C29.101 30.5997 29.2155 30.7135 29.2155 30.8553V31.7444C29.2155 31.8855 29.101 32 28.9599 32H0.256359C0.158832 32 0.0740421 31.9453 0.0309528 31.865C0.0112576 31.8288 1.04026e-05 31.7873 0 31.7432V3.04305C0 2.90196 0.114507 2.78749 0.255611 2.78748H1.14563Z" fill="#F0F9FF"/>
<path d="M31.7444 0C31.8855 2.48356e-05 32 0.114616 32 0.255699V1.14484C32 1.15369 31.9995 1.16243 31.9986 1.17105V28.9558C31.9986 29.0969 31.8841 29.2114 31.743 29.2114H30.853C30.7119 29.2114 30.5974 29.0969 30.5974 28.9558V1.40041H3.04012C2.89901 1.40041 2.78452 1.28659 2.78451 1.14484V0.255699C2.78451 0.114601 2.899 0 3.04012 0H31.7444Z" fill="#F0F9FF"/>
<path d="M16.625 22H15.3754C15.2024 22 15.0625 21.8587 15.0625 21.6845V17.6493L11.5928 19.6536C11.4444 19.7397 11.2548 19.6883 11.1683 19.5395L10.5432 18.4658C10.5009 18.3932 10.4892 18.3065 10.5107 18.2252C10.5316 18.144 10.5837 18.0746 10.6561 18.0324L14.127 15.9997L10.6561 13.9676C10.5837 13.926 10.5316 13.856 10.5101 13.7748C10.4892 13.6935 10.5009 13.6068 10.5432 13.5342L11.1683 12.4605C11.2548 12.3117 11.4438 12.2609 11.5922 12.3471L15.0625 14.3507V10.3155C15.0625 10.1413 15.2024 10 15.3754 10H16.625C16.798 10 16.9378 10.1413 16.9378 10.3155V14.3507L20.4075 12.3471C20.5566 12.2609 20.7449 12.3117 20.832 12.4605L21.4571 13.5342C21.4988 13.6068 21.5111 13.6935 21.4896 13.7748C21.4688 13.856 21.416 13.926 21.3436 13.9676L17.8733 15.9997L21.3436 18.0318C21.4154 18.0746 21.4681 18.144 21.4896 18.2252C21.5105 18.3065 21.4988 18.3926 21.4571 18.4652L20.832 19.5389C20.7449 19.6883 20.5559 19.7397 20.4075 19.6529L16.9378 17.6493V21.6845C16.9378 21.8587 16.798 22 16.625 22Z" fill="#FFD7B7"/>
</g>
<defs>
<clipPath id="clip0_1560_33129">
<rect width="32" height="32" fill="white"/>
</clipPath>
</defs>
</svg>
