<svg width="40" height="40" viewBox="0 0 40 40" fill="none" xmlns="http://www.w3.org/2000/svg">
<path fill-rule="evenodd" clip-rule="evenodd" d="M0.00774384 39.717C0.0026474 39.693 -3.43323e-05 39.6681 -3.43323e-05 39.6427V3.84024C-3.43323e-05 3.65933 0.135067 3.50995 0.309875 3.48758H1.44104C1.61584 3.50995 1.75095 3.65933 1.75095 3.84024V38.249H36.1583C36.3392 38.249 36.4886 38.3841 36.511 38.5589V39.6901C36.4886 39.8649 36.3392 40 36.1583 40H0.355888C0.184376 40 0.0412178 39.8785 0.00774384 39.717ZM38.2408 1.75097H3.83562C3.63926 1.75097 3.48008 1.59174 3.48008 1.39537V0.355522C3.48008 0.159153 3.63926 -7.62939e-06 3.83562 -7.62939e-06H39.6381C39.8189 -7.62939e-06 39.9683 0.135075 39.9907 0.309834V0.327412C39.9914 0.336784 39.9918 0.346287 39.9918 0.355862V36.1583C39.9918 36.3392 39.8567 36.4886 39.6819 36.511H38.5508C38.3759 36.4886 38.2408 36.3392 38.2408 36.1583V1.75097Z" fill="#093351"/>
<path d="M20.8341 28.0515H19.1389C18.905 28.0515 18.7151 27.862 18.7151 27.6277V22.2133L14.0093 24.9023C13.808 25.018 13.5512 24.9489 13.4338 24.7493L12.5862 23.3084C12.529 23.2113 12.5129 23.0948 12.5417 22.9859C12.5705 22.8765 12.6413 22.7833 12.7392 22.7269L17.4458 19.9994L12.7388 17.2723C12.6413 17.2159 12.5701 17.1223 12.5413 17.0133C12.5129 16.904 12.5286 16.7879 12.5858 16.6908L13.4334 15.2499C13.5507 15.0499 13.8076 14.9817 14.0089 15.0969L18.7151 17.7859V12.3711C18.7151 12.1372 18.905 11.9473 19.1389 11.9473H20.8341C21.0684 11.9473 21.2579 12.1372 21.2579 12.3711V17.7859L25.9637 15.0969C26.1654 14.9821 26.4214 15.0499 26.5392 15.2499L27.3868 16.6908C27.444 16.7879 27.4601 16.904 27.4309 17.0133C27.4025 17.1223 27.3313 17.2159 27.2334 17.2723L22.5271 19.9994L27.2334 22.7265C27.3308 22.7833 27.402 22.8765 27.4309 22.9854C27.4597 23.0944 27.4436 23.2105 27.3868 23.308L26.5392 24.7489C26.4214 24.9489 26.165 25.018 25.9637 24.9018L21.2579 22.2133V27.6277C21.2579 27.862 21.0684 28.0515 20.8341 28.0515Z" fill="#FFD7B7"/>
</svg>
