<svg width="168" height="32" viewBox="0 0 168 32" fill="none" xmlns="http://www.w3.org/2000/svg">
<g clip-path="url(#clip0_1503_16847)">
<path d="M1.14563 2.78748C1.28674 2.78748 1.40124 2.90195 1.40124 3.04305V30.5997H28.9599C29.101 30.5997 29.2155 30.7135 29.2155 30.8553V31.7444C29.2155 31.8855 29.101 32 28.9599 32H0.256359C0.158832 32 0.0740421 31.9453 0.0309528 31.865C0.0112576 31.8288 1.04026e-05 31.7873 0 31.7432V3.04305C0 2.90196 0.114507 2.78749 0.255611 2.78748H1.14563Z" fill="#F0F9FF"/>
<path d="M31.7444 0C31.8855 2.48356e-05 32 0.114616 32 0.255699V1.14484C32 1.15369 31.9995 1.16243 31.9986 1.17105V28.9558C31.9986 29.0969 31.8841 29.2114 31.743 29.2114H30.853C30.7119 29.2114 30.5974 29.0969 30.5974 28.9558V1.40041H3.04012C2.89901 1.40041 2.78452 1.28659 2.78451 1.14484V0.255699C2.78451 0.114601 2.899 0 3.04012 0H31.7444Z" fill="#F0F9FF"/>
<path d="M16.625 22H15.3754C15.2024 22 15.0625 21.8587 15.0625 21.6845V17.6493L11.5928 19.6536C11.4444 19.7397 11.2548 19.6883 11.1683 19.5395L10.5432 18.4658C10.5009 18.3932 10.4892 18.3065 10.5107 18.2252C10.5316 18.144 10.5837 18.0746 10.6561 18.0324L14.127 15.9997L10.6561 13.9676C10.5837 13.926 10.5316 13.856 10.5101 13.7748C10.4892 13.6935 10.5009 13.6068 10.5432 13.5342L11.1683 12.4605C11.2548 12.3117 11.4438 12.2609 11.5922 12.3471L15.0625 14.3507V10.3155C15.0625 10.1413 15.2024 10 15.3754 10H16.625C16.798 10 16.9378 10.1413 16.9378 10.3155V14.3507L20.4075 12.3471C20.5566 12.2609 20.7449 12.3117 20.832 12.4605L21.4571 13.5342C21.4988 13.6068 21.5111 13.6935 21.4896 13.7748C21.4688 13.856 21.416 13.926 21.3436 13.9676L17.8733 15.9997L21.3436 18.0318C21.4154 18.0746 21.4681 18.144 21.4896 18.2252C21.5105 18.3065 21.4988 18.3926 21.4571 18.4652L20.832 19.5389C20.7449 19.6883 20.5559 19.7397 20.4075 19.6529L16.9378 17.6493V21.6845C16.9378 21.8587 16.798 22 16.625 22Z" fill="#FFD7B7"/>
<path fill-rule="evenodd" clip-rule="evenodd" d="M81.4275 7.98738C83.1549 7.98738 84.4709 8.30197 85.3759 8.93116L86.4814 10.6613V8.42724H90.8394V20.9791C90.8394 22.5311 90.8295 23.6107 90.8098 24.2184C90.724 26.7775 89.8966 28.7068 88.3272 30.0064C86.759 31.3071 84.617 31.9579 81.9013 31.9579C79.4596 31.9579 77.5545 31.4644 76.1862 30.4783C74.8172 29.4915 74.0381 28.0758 73.8493 26.2313L73.8172 25.9166H78.0493L78.0813 26.1994C78.1862 26.976 78.5811 27.5891 79.2658 28.0401C79.95 28.4905 80.8501 28.7161 81.9655 28.7161C83.3339 28.7161 84.4024 28.375 85.1711 27.6936C85.9391 27.0116 86.3654 26.0107 86.4494 24.6903C86.4703 24.2712 86.4814 23.5892 86.4814 22.6454V22.2374L85.2179 24.093C84.2074 24.8684 82.8181 25.2556 81.05 25.2556C78.7119 25.2556 76.8481 24.4961 75.4582 22.9772C74.0695 21.4571 73.3756 19.4589 73.3755 16.9828C73.3755 14.0894 74.1436 11.8669 75.6803 10.3148C77.2164 8.76335 79.1326 7.98739 81.4275 7.98738ZM82.2814 11.0374C80.9551 11.0374 79.8915 11.5044 79.0907 12.4383C78.2912 13.371 77.8914 14.7603 77.8914 16.6067C77.8914 18.3259 78.2696 19.6887 79.0265 20.6964C79.7847 21.7028 80.8162 22.2055 82.121 22.2055C83.427 22.2055 84.4801 21.76 85.2797 20.8685C86.0804 19.9776 86.4814 18.5668 86.4814 16.6362V16.1643C86.4814 14.4243 86.0705 13.1351 85.2501 12.2958C84.4289 11.4571 83.4394 11.0374 82.2814 11.0374Z" fill="#F0F9FF"/>
<path fill-rule="evenodd" clip-rule="evenodd" d="M63.6458 7.98738C66.1098 7.98739 68.0364 8.79541 69.4251 10.4108C70.815 12.0249 71.5103 14.0378 71.5103 16.4495C71.5103 17.0577 71.4894 17.5499 71.4487 17.9265H59.5099C59.7617 21.0104 61.056 22.552 63.3941 22.552C64.3417 22.552 65.1251 22.3007 65.7458 21.7975C66.3676 21.2931 66.7526 20.6005 66.9006 19.7207H71.2586C70.8373 21.6279 69.9162 23.0853 68.4948 24.093C67.0735 25.0995 65.3417 25.6021 63.3003 25.6021C60.8783 25.6021 58.9091 24.8525 57.3927 23.3533C55.8775 21.854 55.1199 19.6887 55.1199 16.8574C55.1199 14.2571 55.9035 12.1287 57.4717 10.4722C59.0411 8.81565 61.0992 7.98738 63.6458 7.98738ZM63.4582 11.0375C61.2879 11.0375 60.014 12.3905 59.6358 15.0952H67.0265C66.7316 12.3905 65.5422 11.0375 63.4582 11.0375Z" fill="#F0F9FF"/>
<path fill-rule="evenodd" clip-rule="evenodd" d="M147.755 7.98738C150.492 7.98738 152.629 8.80021 154.166 10.4254C155.704 12.0512 156.473 14.1735 156.473 16.7935C156.473 19.3956 155.704 21.5142 154.166 23.1492C152.629 24.7849 150.492 25.6021 147.755 25.6021C145.017 25.6021 142.88 24.7849 141.344 23.1492C139.807 21.5142 139.039 19.3956 139.039 16.7935C139.039 14.1735 139.807 12.0512 141.344 10.4254C142.88 8.80022 145.017 7.98738 147.755 7.98738ZM147.755 11.0374C146.45 11.0374 145.423 11.5461 144.675 12.5636C143.928 13.5812 143.555 14.9919 143.555 16.7959C143.555 18.5987 143.928 20.0082 144.675 21.0257C145.423 22.0432 146.45 22.552 147.755 22.552C149.061 22.552 150.087 22.0432 150.834 21.0257C151.581 20.0082 151.955 18.5987 151.955 16.7959C151.955 14.9919 151.581 13.5812 150.834 12.5636C150.087 11.5461 149.061 11.0374 147.755 11.0374Z" fill="#F0F9FF"/>
<path d="M164.526 8.5527H168V11.416H164.526V19.1529C164.526 19.846 164.536 20.3394 164.558 20.6325C164.62 21.4503 164.862 21.9793 165.283 22.2202C165.704 22.4611 166.515 22.5397 167.716 22.4562V25.2875C166.811 25.4349 165.853 25.5087 164.841 25.5087C163.241 25.5087 162.098 25.2414 161.414 24.7075C160.731 24.1717 160.337 23.2961 160.232 22.0801C160.189 21.5775 160.168 20.7696 160.168 19.6568V11.416H157.705V8.5527H160.168V4.43105H164.526V8.5527Z" fill="#F0F9FF"/>
<path d="M135.594 19.6888C135.594 20.423 135.604 20.9367 135.626 21.2298C135.669 21.6709 135.827 21.9647 136.1 22.1121C136.374 22.2584 136.87 22.31 137.585 22.267V25.2556C136.827 25.3404 135.932 25.3833 134.901 25.3833C132.584 25.3833 131.384 24.3972 131.3 22.4242C131.257 21.9216 131.236 21.0405 131.236 19.7822V2.04199H135.594V19.6888Z" fill="#F0F9FF"/>
<path d="M42.358 21.5444H53.7291V25.1621H38V3.45777H42.358V21.5444Z" fill="#F0F9FF"/>
<path d="M99.2428 25.1621H94.8824V8.42724H99.2428V25.1621Z" fill="#F0F9FF"/>
<path fill-rule="evenodd" clip-rule="evenodd" d="M111.654 3.45777C112.874 3.45778 113.927 3.51058 114.813 3.61503C116.56 3.80367 117.975 4.46972 119.06 5.61319C120.145 6.75543 120.688 8.29096 120.688 10.2191C120.688 12.1281 120.129 13.6544 119.013 14.7979C117.897 15.9401 116.497 16.616 114.813 16.8255C113.908 16.9306 112.855 16.9828 111.654 16.9828H108.463V25.1621H104.105V3.45777H111.654ZM108.463 13.5542H111.59C112.391 13.5542 113.033 13.5234 113.517 13.4608C115.245 13.2088 116.108 12.1287 116.108 10.2215C116.108 8.31303 115.245 7.2322 113.517 6.97966C113.033 6.91761 112.391 6.88634 111.59 6.88634H108.463V13.5542Z" fill="#F0F9FF"/>
<path d="M127.321 25.1621H122.961V8.42724H127.321V25.1621Z" fill="#F0F9FF"/>
<path d="M64.4996 7.07552H62.0368L64.4996 3.36192H68.4158L64.4996 7.07552Z" fill="#F0F9FF"/>
<path d="M97.0613 2.19937C97.7782 2.19937 98.3575 2.41438 98.7986 2.84326C99.2409 3.27275 99.4623 3.8233 99.4623 4.49487C99.4623 5.18671 99.2409 5.74219 98.7986 6.16123C98.3575 6.58089 97.7782 6.79038 97.0613 6.79038C96.3457 6.79038 95.7663 6.58089 95.324 6.16123C94.8829 5.74219 94.6627 5.18671 94.6627 4.49487C94.6627 3.8233 94.8829 3.27275 95.324 2.84326C95.7663 2.41438 96.3457 2.19937 97.0613 2.19937Z" fill="#F0F9FF"/>
<path d="M125.14 2.19937C125.856 2.19937 126.436 2.41438 126.877 2.84326C127.319 3.27275 127.541 3.8233 127.541 4.49487C127.541 5.18671 127.319 5.74219 126.877 6.16123C126.436 6.58089 125.856 6.79038 125.14 6.79038C124.424 6.79038 123.845 6.58089 123.402 6.16123C122.961 5.74219 122.741 5.18671 122.741 4.49487C122.741 3.8233 122.961 3.27275 123.402 2.84326C123.845 2.41438 124.424 2.19937 125.14 2.19937Z" fill="#F0F9FF"/>
</g>
<defs>
<clipPath id="clip0_1503_16847">
<rect width="168" height="32" fill="white"/>
</clipPath>
</defs>
</svg>
